<?xml version="1.0" standalone="no"?>
<!DOCTYPE svg PUBLIC "-//W3C//DTD SVG 1.1//EN" "http://www.w3.org/Graphics/SVG/1.1/DTD/svg11.dtd" >
<svg xmlns="http://www.w3.org/2000/svg">
<metadata>Generated by IcoMoon</metadata>
<defs>
<font id="CLi-Social" horiz-adv-x="1024">
<font-face units-per-em="1024" ascent="960" descent="-64" />
<missing-glyph horiz-adv-x="1024" />
<glyph unicode="&#x20;" horiz-adv-x="512" d="" />
<glyph unicode="&#xe600;" glyph-name="facebook" d="M563.2 140.8v276.48h90.419l14.131 112.64h-104.55v70.042c0 31.642 9.114 53.146 54.477 53.146h58.163v97.792c-24.62 2.741-53.166 4.305-82.076 4.305-0.881 0-1.762-0.001-2.643-0.004-83.217 0-140.561-51.2-140.561-144.384v-80.896h-102.4v-112.64h102.4v-276.48z" />
<glyph unicode="&#xe601;" glyph-name="facebook-circle" d="M512 954.88c-279.942 0-506.88-226.938-506.88-506.88s226.938-506.88 506.88-506.88c279.942 0 506.88 226.938 506.88 506.88s-226.938 506.88-506.88 506.88zM696.32 684.749h-63.59c-52.326 0-59.29-24.883-59.29-61.44v-72.909h118.272l-15.872-133.12h-102.4v-327.68h-133.12v327.68h-112.64v133.12h112.64v85.504c0 107.827 64.205 166.605 160.461 166.605 0.484 0.001 1.058 0.001 1.631 0.001 33.078 0 65.739-1.786 97.891-5.267z" />
<glyph unicode="&#xe602;" glyph-name="facebook-square" d="M0 960v-1024h1024v1024zM696.32 684.749h-63.59c-52.326 0-59.29-24.883-59.29-61.44v-72.909h118.272l-15.872-133.12h-102.4v-327.68h-133.12v327.68h-112.64v133.12h112.64v85.504c0 107.827 64.205 166.605 160.461 166.605 0.484 0.001 1.058 0.001 1.631 0.001 33.078 0 65.739-1.786 97.891-5.267z" />
<glyph unicode="&#xe603;" glyph-name="facebook-square-round" d="M849.92 960h-675.84c-96.025-0.29-173.79-78.055-174.080-174.052v-675.868c0.29-96.025 78.055-173.79 174.052-174.080h675.868c96.025 0.29 173.79 78.055 174.080 174.052v675.868c-0.29 96.025-78.055 173.79-174.052 174.080zM696.32 684.749h-63.59c-52.326 0-59.29-24.883-59.29-61.44v-72.909h118.272l-15.872-133.12h-102.4v-327.68h-133.12v327.68h-112.64v133.12h112.64v85.504c0 107.827 64.205 166.605 160.461 166.605 0.484 0.001 1.058 0.001 1.631 0.001 33.078 0 65.739-1.786 97.891-5.267z" />
<glyph unicode="&#xe604;" glyph-name="flickr" d="M461.414 448c0-84.831-68.769-153.6-153.6-153.6s-153.6 68.769-153.6 153.6c0 84.831 68.769 153.6 153.6 153.6s153.6-68.769 153.6-153.6zM869.786 448c0-84.831-68.769-153.6-153.6-153.6s-153.6 68.769-153.6 153.6c0 84.831 68.769 153.6 153.6 153.6s153.6-68.769 153.6-153.6z" />
<glyph unicode="&#xe605;" glyph-name="flickr-circle" d="M512 954.88c-279.942 0-506.88-226.938-506.88-506.88s226.938-506.88 506.88-506.88c279.942 0 506.88 226.938 506.88 506.88s-226.938 506.88-506.88 506.88zM307.2 294.4c-84.831 0-153.6 68.769-153.6 153.6s68.769 153.6 153.6 153.6c84.831 0 153.6-68.769 153.6-153.6s-68.769-153.6-153.6-153.6zM716.8 294.4c-84.831 0-153.6 68.769-153.6 153.6s68.769 153.6 153.6 153.6c84.831 0 153.6-68.769 153.6-153.6s-68.769-153.6-153.6-153.6z" />
<glyph unicode="&#xe606;" glyph-name="flickr-square" d="M0 960v-1024h1024v1024zM307.2 294.4c-84.831 0-153.6 68.769-153.6 153.6s68.769 153.6 153.6 153.6c84.831 0 153.6-68.769 153.6-153.6s-68.769-153.6-153.6-153.6zM716.8 294.4c-84.831 0-153.6 68.769-153.6 153.6s68.769 153.6 153.6 153.6c84.831 0 153.6-68.769 153.6-153.6s-68.769-153.6-153.6-153.6z" />
<glyph unicode="&#xe607;" glyph-name="flickr-square-round" d="M849.92 960h-675.84c-96.142 0-174.080-77.938-174.080-174.080v-675.84c0.29-96.025 78.055-173.79 174.052-174.080h675.868c96.025 0.29 173.79 78.055 174.080 174.052v675.868c0 96.142-77.938 174.080-174.080 174.080zM307.2 294.4c-84.831 0-153.6 68.769-153.6 153.6s68.769 153.6 153.6 153.6c84.831 0 153.6-68.769 153.6-153.6s-68.769-153.6-153.6-153.6zM716.8 294.4c-84.831 0-153.6 68.769-153.6 153.6s68.769 153.6 153.6 153.6c84.831 0 153.6-68.769 153.6-153.6s-68.769-153.6-153.6-153.6z" />
<glyph unicode="&#xe608;" glyph-name="google" d="M352.358 485.581v-93.901h158.413c-6.451-40.96-48.23-121.446-159.744-121.446-96.381 2.386-173.601 81.084-173.601 177.818s77.22 175.432 173.38 177.813c1.294 0.030 2.557 0.045 3.824 0.045 42.276 0 80.687-16.55 109.106-43.524l76.321 73.691c-48.218 45.55-113.436 73.55-185.194 73.55-1.349 0-2.696-0.010-4.040-0.030-155.32 0.002-281.397-126.074-281.397-281.598s126.077-281.6 281.6-281.6c162.509 0 270.336 112.64 270.336 273.818 0.013 0.85 0.020 1.854 0.020 2.859 0 15.052-1.611 29.727-4.67 43.864zM953.139 485.581h-75.162v84.48h-84.48v-84.48h-84.48v-75.162h84.48v-84.48h84.48v84.48h75.162v75.162z" />
<glyph unicode="&#xe609;" glyph-name="google-circle" d="M512 954.88c-279.942 0-506.88-226.938-506.88-506.88s226.938-506.88 506.88-506.88c279.942 0 506.88 226.938 506.88 506.88s-226.938 506.88-506.88 506.88zM363.008 186.88c-143.958 0-260.659 116.701-260.659 260.659s116.701 260.659 260.659 260.659c1.089 0.017 2.374 0.027 3.662 0.027 66.233 0 126.447-25.771 171.161-67.833l-70.887-67.976c-26.25 24.935-61.825 40.273-100.982 40.273-1.039 0-2.075-0.011-3.109-0.032-88.889-2.29-160.197-75.018-160.197-164.401s71.308-162.111 160.139-164.399c103.329-0.004 142.036 71.676 148.078 112.636h-152.474v92.467h250.778c2.176-13.203 3.649-28.756 4.085-44.569 0.011-149.479-99.727-256.999-250.255-256.999zM849.92 407.040v-71.68h-81.92v71.68h-71.68v81.92h71.68v71.68h81.92v-71.68h71.68v-81.92z" />
<glyph unicode="&#xe60a;" glyph-name="google-square" d="M0 960v-1024h1024v1024zM363.008 187.392c-143.958 0-260.659 116.701-260.659 260.659s116.701 260.659 260.659 260.659c0.929 0.012 2.027 0.020 3.126 0.020 66.492 0 126.918-25.973 171.685-68.327l-70.875-67.987c-26.25 24.935-61.825 40.273-100.982 40.273-1.039 0-2.075-0.011-3.109-0.032-88.889-2.29-160.197-75.018-160.197-164.401s71.308-162.111 160.139-164.399c103.329-0.004 142.036 71.676 148.078 112.636h-152.474v92.467h250.778c2.176-13.203 3.649-28.756 4.085-44.569 0.011-149.479-99.727-256.999-250.255-256.999zM921.6 407.040h-71.68v-71.68h-81.92v71.68h-71.68v81.92h71.68v71.68h81.92v-71.68h71.68z" />
<glyph unicode="&#xe60b;" glyph-name="google-square-round" d="M849.92 960h-675.84c-96.142 0-174.080-77.938-174.080-174.080v-675.84c0.29-96.025 78.055-173.79 174.052-174.080h675.868c96.025 0.29 173.79 78.055 174.080 174.052v675.868c0 96.142-77.938 174.080-174.080 174.080zM363.008 187.392c-143.958 0-260.659 116.701-260.659 260.659s116.701 260.659 260.659 260.659c0.929 0.012 2.027 0.020 3.126 0.020 66.492 0 126.918-25.973 171.685-68.327l-70.875-67.987c-26.25 24.935-61.825 40.273-100.982 40.273-1.039 0-2.075-0.011-3.109-0.032-88.889-2.29-160.197-75.018-160.197-164.401s71.308-162.111 160.139-164.399c103.329-0.004 142.036 71.676 148.078 112.636h-152.474v92.467h250.778c2.176-13.203 3.649-28.756 4.085-44.569 0.011-149.479-99.727-256.999-250.255-256.999zM921.6 407.040h-71.68v-71.68h-81.92v71.68h-71.68v81.92h71.68v71.68h81.92v-71.68h71.68z" />
<glyph unicode="&#xe60c;" glyph-name="instagram" d="M512 720.794c88.883 0 99.43 0 134.451-1.946 22.144-0.324 43.215-4.502 62.707-11.89 27.855-11.019 50.473-33.636 61.654-62.012 7.227-18.972 11.405-40.044 11.727-62.049 1.64-35.262 1.947-45.706 1.947-134.59s0-99.43-1.946-134.451c-0.324-22.144-4.502-43.215-11.89-62.707-11.019-27.855-33.636-50.473-62.012-61.654-18.972-7.227-40.044-11.405-62.049-11.727-35.262-1.64-45.706-1.947-134.59-1.947s-99.43 0-134.451 1.946c-22.144 0.324-43.215 4.502-62.707 11.89-27.855 11.019-50.473 33.636-61.654 62.012-7.227 18.972-11.405 40.044-11.727 62.049-1.64 35.262-1.947 45.706-1.947 134.59s0 99.43 1.946 134.451c0.324 22.144 4.502 43.215 11.89 62.707 11.019 27.855 33.636 50.473 62.012 61.654 18.972 7.227 40.044 11.405 62.049 11.727 35.262 1.64 45.706 1.947 134.59 1.947zM512 780.8c-90.419 0-101.683 0-137.216-2.048-29.172-0.597-56.856-6.217-82.467-16.026-43.19-17.109-78.036-51.956-95.307-95.666-9.603-25.066-15.187-52.718-15.758-81.599-1.642-35.778-2.052-47.042-2.052-137.461s0-101.683 2.048-137.216c0.597-29.172 6.217-56.856 16.026-82.467 17.109-43.19 51.956-78.036 95.666-95.307 25.066-9.603 52.718-15.187 81.599-15.758 35.778-1.642 47.042-2.052 137.461-2.052s101.683 0 137.216 2.048c29.172 0.597 56.856 6.217 82.467 16.026 43.19 17.109 78.036 51.956 95.307 95.666 9.603 25.066 15.187 52.718 15.758 81.599 1.642 35.778 2.052 47.042 2.052 137.461s0 101.683-2.048 137.216c-0.597 29.172-6.217 56.856-16.026 82.467-17.109 43.19-51.956 78.036-95.666 95.307-25.066 9.603-52.718 15.187-81.599 15.758-35.778 1.642-47.042 2.052-137.461 2.052zM512 618.906c-94.389 0-170.906-76.517-170.906-170.906s76.517-170.906 170.906-170.906c94.389 0 170.906 76.517 170.906 170.906s-76.517 170.906-170.906 170.906zM512 337.101c-61.248 0-110.899 49.651-110.899 110.899s49.651 110.899 110.899 110.899c61.248 0 110.899-49.651 110.899-110.899s-49.651-110.899-110.899-110.899zM729.6 625.664c0-22.056-17.88-39.936-39.936-39.936s-39.936 17.88-39.936 39.936c0 22.056 17.88 39.936 39.936 39.936s39.936-17.88 39.936-39.936z" />
<glyph unicode="&#xe60d;" glyph-name="instagram-circle" d="M767.488 641.229c-11.271 28.641-33.516 50.886-61.421 61.901-18.848 7.031-39.775 11.001-61.616 11.11-34.556 1.536-45.001 1.946-132.451 1.946s-97.894 0-132.403-1.946c-21.907-0.265-42.776-4.373-62.073-11.678-27.393-10.856-49.639-33.102-60.654-61.007-6.973-18.688-10.938-39.431-11.11-61.076-1.536-34.584-1.946-45.029-1.946-132.478s0-97.894 1.946-132.403c0.265-21.907 4.373-42.776 11.678-62.073 10.856-27.393 33.102-49.639 61.007-60.654 18.688-6.973 39.431-10.938 61.076-11.11 34.584-1.536 45.029-1.946 132.478-1.946s97.894 0 132.403 1.946c21.907 0.265 42.776 4.373 62.073 11.678 27.393 10.856 49.639 33.102 60.654 61.007 6.973 18.688 10.938 39.431 11.11 61.076 1.536 34.584 1.946 45.029 1.946 132.478s0 97.894-1.946 132.403c-0.086 21.841-4.020 42.738-11.158 62.082zM512 279.757c-92.918 0-168.243 75.325-168.243 168.243s75.325 168.243 168.243 168.243c92.918 0 168.243-75.325 168.243-168.243s-75.325-168.243-168.243-168.243c0 0 0 0 0 0zM686.899 583.578c-21.717 0-39.322 17.605-39.322 39.322s17.605 39.322 39.322 39.322c21.717 0 39.322-17.605 39.322-39.322 0 0 0 0 0 0 0-21.717-17.605-39.322-39.322-39.322zM621.261 448c0-60.343-48.918-109.261-109.261-109.261s-109.261 48.918-109.261 109.261c0 60.343 48.918 109.261 109.261 109.261s109.261-48.918 109.261-109.261zM512 954.88c-279.942 0-506.88-226.938-506.88-506.88s226.938-506.88 506.88-506.88c279.942 0 506.88 226.938 506.88 506.88s-226.938 506.88-506.88 506.88zM837.734 312.934c-0.549-28.867-6.098-56.276-15.813-81.622-16.844-42.269-50.965-76.39-93.75-93.392-24.703-9.51-51.965-15.055-80.443-15.65-35.583-1.95-46.744-1.95-135.73-1.95s-100.147 0-135.066 1.946c-28.867 0.549-56.276 6.098-81.622 15.813-42.269 16.844-76.39 50.965-93.392 93.75-9.51 24.703-15.055 51.965-15.65 80.443-1.95 35.583-1.95 46.744-1.95 135.73s0 100.147 1.946 135.066c0.549 28.867 6.098 56.276 15.813 81.622 16.844 42.269 50.965 76.39 93.75 93.392 24.703 9.51 51.965 15.055 80.443 15.65 35.583 1.95 46.744 1.95 135.73 1.95s100.147 0 135.066-1.946c28.867-0.549 56.276-6.098 81.622-15.813 42.269-16.844 76.39-50.965 93.392-93.75 9.51-24.703 15.055-51.965 15.65-80.443 1.95-35.583 1.95-46.744 1.95-135.73s0-100.147-1.946-135.066z" />
<glyph unicode="&#xe60e;" glyph-name="instagram-square" d="M621.261 448c0-60.343-48.918-109.261-109.261-109.261s-109.261 48.918-109.261 109.261c0 60.343 48.918 109.261 109.261 109.261s109.261-48.918 109.261-109.261zM767.488 641.229c-11.271 28.641-33.516 50.886-61.421 61.901-18.848 7.031-39.775 11.001-61.616 11.11-34.556 1.536-45.001 1.946-132.451 1.946s-97.894 0-132.403-1.946c-21.907-0.265-42.776-4.373-62.073-11.678-27.393-10.856-49.639-33.102-60.654-61.007-6.973-18.688-10.938-39.431-11.11-61.076-1.536-34.584-1.946-45.029-1.946-132.478s0-97.894 1.946-132.403c0.265-21.907 4.373-42.776 11.678-62.073 10.856-27.393 33.102-49.639 61.007-60.654 18.688-6.973 39.431-10.938 61.076-11.11 34.584-1.536 45.029-1.946 132.478-1.946s97.894 0 132.403 1.946c21.907 0.265 42.776 4.373 62.073 11.678 27.393 10.856 49.639 33.102 60.654 61.007 6.973 18.688 10.938 39.431 11.11 61.076 1.536 34.584 1.946 45.029 1.946 132.478s0 97.894-1.946 132.403c-0.086 21.841-4.020 42.738-11.158 62.082zM512 279.757c-92.918 0-168.243 75.325-168.243 168.243s75.325 168.243 168.243 168.243c92.918 0 168.243-75.325 168.243-168.243s-75.325-168.243-168.243-168.243c0 0 0 0 0 0zM686.899 583.578c-21.717 0-39.322 17.605-39.322 39.322s17.605 39.322 39.322 39.322c21.717 0 39.322-17.605 39.322-39.322 0 0 0 0 0 0 0-21.717-17.605-39.322-39.322-39.322zM0 960v-1024h1024v1024zM837.734 312.934c-0.549-28.867-6.098-56.276-15.813-81.622-16.844-42.269-50.965-76.39-93.75-93.392-24.703-9.51-51.965-15.055-80.443-15.65-35.583-1.95-46.744-1.95-135.73-1.95s-100.147 0-135.066 1.946c-28.867 0.549-56.276 6.098-81.622 15.813-42.269 16.844-76.39 50.965-93.392 93.75-9.51 24.703-15.055 51.965-15.65 80.443-1.95 35.583-1.95 46.744-1.95 135.73s0 100.147 1.946 135.066c0.549 28.867 6.098 56.276 15.813 81.622 16.844 42.269 50.965 76.39 93.75 93.392 24.703 9.51 51.965 15.055 80.443 15.65 35.583 1.95 46.744 1.95 135.73 1.95s100.147 0 135.066-1.946c28.867-0.549 56.276-6.098 81.622-15.813 42.269-16.844 76.39-50.965 93.392-93.75 9.51-24.703 15.055-51.965 15.65-80.443 1.95-35.583 1.95-46.744 1.95-135.73s0-100.147-1.946-135.066z" />
<glyph unicode="&#xe60f;" glyph-name="instagram-square-round" d="M621.261 448c0-60.343-48.918-109.261-109.261-109.261s-109.261 48.918-109.261 109.261c0 60.343 48.918 109.261 109.261 109.261s109.261-48.918 109.261-109.261zM767.488 641.229c-11.271 28.641-33.516 50.886-61.421 61.901-18.848 7.031-39.775 11.001-61.616 11.11-34.556 1.536-45.001 1.946-132.451 1.946s-97.894 0-132.403-1.946c-21.907-0.265-42.776-4.373-62.073-11.678-27.393-10.856-49.639-33.102-60.654-61.007-6.973-18.688-10.938-39.431-11.11-61.076-1.536-34.584-1.946-45.029-1.946-132.478s0-97.894 1.946-132.403c0.265-21.907 4.373-42.776 11.678-62.073 10.856-27.393 33.102-49.639 61.007-60.654 18.688-6.973 39.431-10.938 61.076-11.11 34.584-1.536 45.029-1.946 132.478-1.946s97.894 0 132.403 1.946c21.907 0.265 42.776 4.373 62.073 11.678 27.393 10.856 49.639 33.102 60.654 61.007 6.973 18.688 10.938 39.431 11.11 61.076 1.536 34.584 1.946 45.029 1.946 132.478s0 97.894-1.946 132.403c-0.086 21.841-4.020 42.738-11.158 62.082zM512 279.757c-92.918 0-168.243 75.325-168.243 168.243s75.325 168.243 168.243 168.243c92.918 0 168.243-75.325 168.243-168.243s-75.325-168.243-168.243-168.243c0 0 0 0 0 0zM686.899 583.578c-21.717 0-39.322 17.605-39.322 39.322s17.605 39.322 39.322 39.322c21.717 0 39.322-17.605 39.322-39.322 0 0 0 0 0 0 0-21.717-17.605-39.322-39.322-39.322zM849.92 960h-675.84c-96.142 0-174.080-77.938-174.080-174.080v-675.84c0-96.142 77.938-174.080 174.080-174.080h675.84c96.142 0 174.080 77.938 174.080 174.080v675.84c0 96.142-77.938 174.080-174.080 174.080zM837.734 312.934c-0.549-28.867-6.098-56.276-15.813-81.622-16.844-42.269-50.965-76.39-93.75-93.392-24.703-9.51-51.965-15.055-80.443-15.65-35.583-1.95-46.744-1.95-135.73-1.95s-100.147 0-135.066 1.946c-28.867 0.549-56.276 6.098-81.622 15.813-42.269 16.844-76.39 50.965-93.392 93.75-9.51 24.703-15.055 51.965-15.65 80.443-1.95 35.583-1.95 46.744-1.95 135.73s0 100.147 1.946 135.066c0.549 28.867 6.098 56.276 15.813 81.622 16.844 42.269 50.965 76.39 93.75 93.392 24.703 9.51 51.965 15.055 80.443 15.65 35.583 1.95 46.744 1.95 135.73 1.95s100.147 0 135.066-1.946c28.867-0.549 56.276-6.098 81.622-15.813 42.269-16.844 76.39-50.965 93.392-93.75 9.51-24.703 15.055-51.965 15.65-80.443 1.95-35.583 1.95-46.744 1.95-135.73s0-100.147-1.946-135.066z" />
<glyph unicode="&#xe610;" glyph-name="linkedin" d="M215.040 550.4h122.88v-409.6h-122.88zM278.221 755.2c0 0 0 0 0 0 40.832 0 73.933-33.101 73.933-73.933s-33.101-73.933-73.933-73.933c-40.832 0-73.933 33.101-73.933 73.933s33.101 73.933 73.933 73.933zM419.84 550.4h122.88v-51.2h3.277c17.203 30.72 58.163 64.205 120.422 64.205 129.229 0 152.781-87.040 152.781-197.325v-225.28h-122.88v199.578c0 47.616-1.126 108.851-66.56 108.851s-76.8-51.917-76.8-105.37v-203.059h-133.12z" />
<glyph unicode="&#xe611;" glyph-name="linkedin-circle" d="M512 954.88c-279.552 0-506.88-227.328-506.88-506.88s227.328-506.88 506.88-506.88 506.88 227.328 506.88 506.88c0 279.552-227.328 506.88-506.88 506.88zM337.92 140.8h-122.88v409.6h122.88v-409.6zM278.528 606.72c-40.96 0-73.728 32.768-73.728 73.728s32.768 73.728 73.728 73.728c40.96 0 73.728-32.768 73.728-73.728 0-39.936-32.768-73.728-73.728-73.728zM819.2 140.8h-122.88v199.68c0 47.104-1.024 108.544-66.56 108.544-66.56 0-76.8-52.224-76.8-105.472v-202.752h-133.12v409.6h122.88v-51.2h3.072c17.408 30.72 58.368 64.512 120.832 64.512 129.024 0 152.576-87.040 152.576-197.632v-225.28z" />
<glyph unicode="&#xe612;" glyph-name="linkedin-square" d="M0 960v-1024h1024v1024h-1024zM337.92 140.8h-122.88v409.6h122.88v-409.6zM278.528 606.72c-40.96 0-73.728 32.768-73.728 73.728s32.768 73.728 73.728 73.728c40.96 0 73.728-32.768 73.728-73.728 0-39.936-32.768-73.728-73.728-73.728zM819.2 140.8h-122.88v199.68c0 47.104-1.024 108.544-66.56 108.544-66.56 0-76.8-52.224-76.8-105.472v-202.752h-133.12v409.6h122.88v-51.2h3.072c17.408 30.72 58.368 64.512 120.832 64.512 129.024 0 152.576-87.040 152.576-197.632v-225.28z" />
<glyph unicode="&#xe613;" glyph-name="linkedin-square-round" d="M849.92 960h-675.84c-95.232 0-174.080-78.848-174.080-174.080v-675.84c0-95.232 78.848-174.080 174.080-174.080h675.84c95.232 0 174.080 78.848 174.080 174.080v675.84c0 95.232-78.848 174.080-174.080 174.080zM337.92 140.8h-122.88v409.6h122.88v-409.6zM278.528 606.72c-40.96 0-73.728 32.768-73.728 73.728s32.768 73.728 73.728 73.728c40.96 0 73.728-32.768 73.728-73.728 0-39.936-32.768-73.728-73.728-73.728zM819.2 140.8h-122.88v199.68c0 47.104-1.024 108.544-66.56 108.544-66.56 0-76.8-52.224-76.8-105.472v-202.752h-133.12v409.6h122.88v-51.2h3.072c17.408 30.72 58.368 64.512 120.832 64.512 129.024 0 152.576-87.040 152.576-197.632v-225.28z" />
<glyph unicode="&#xe614;" glyph-name="newswire" d="M778.24 192.922c-1.090-29.001-24.863-52.098-54.031-52.098-13.889 0-26.555 5.237-36.13 13.844l-1.282 0.673-1.946 1.741c-1.843 1.638-1.638 3.277-3.174 5.325l-323.277 397.414v-366.899c0-28.672-27.648-52.122-56.32-52.122s-56.32 23.45-56.32 52.122v510.157c1.022 29 24.778 52.122 53.933 52.122 0.047 0 0.094 0 0.141 0 10.483-0.035 20.273-3.002 28.596-8.124 5.936-3.249 11.070-7.795 15.030-13.248l322.139-395.601v364.851c0 28.672 27.648 52.122 56.32 52.122s56.32-23.45 56.32-52.122z" />
<glyph unicode="&#xe615;" glyph-name="newswire-circle" d="M512 954.88c-279.942 0-506.88-226.938-506.88-506.88s226.938-506.88 506.88-506.88c279.942 0 506.88 226.938 506.88 506.88s-226.938 506.88-506.88 506.88zM778.24 209.92c0-26.726-32.563-48.64-59.392-48.64-14.394 0.015-27.651 4.865-38.241 13.012s-3.026-0.109-3.334 0.505-2.458 1.024-2.97 1.638-7.168 3.072-8.704 4.915l-307.2 370.995v-342.426c0-26.726-29.594-48.64-56.32-48.64s-56.32 21.914-56.32 48.64v476.16c0 26.726 32.563 48.64 59.392 48.64 11.223-0.072 21.786-2.827 31.102-7.655 8.053-3.014 15.319-7.415 21.618-12.898l307.728-368.566v340.48c0 26.726 29.594 48.64 56.32 48.64s56.32-21.914 56.32-48.64z" />
<glyph unicode="&#xe616;" glyph-name="newswire-square" d="M0 960v-1024h1024v1024zM778.24 209.92c0-26.726-32.563-48.64-59.392-48.64-14.394 0.015-27.651 4.865-38.241 13.012s-3.026-0.109-3.334 0.505-2.458 1.024-2.97 1.638-7.168 3.072-8.704 4.915l-307.2 370.995v-342.426c0-26.726-29.594-48.64-56.32-48.64s-56.32 21.914-56.32 48.64v476.16c0 26.726 32.563 48.64 59.392 48.64 11.223-0.072 21.786-2.827 31.102-7.655 8.053-3.014 15.319-7.415 21.618-12.898l307.728-368.566v340.48c0 26.726 29.594 48.64 56.32 48.64s56.32-21.914 56.32-48.64z" />
<glyph unicode="&#xe617;" glyph-name="newswire-square-round" d="M849.92 960h-675.84c-96.025-0.29-173.79-78.055-174.080-174.052v-675.868c0.29-96.025 78.055-173.79 174.052-174.080h675.868c96.025 0.29 173.79 78.055 174.080 174.052v675.868c-0.29 96.025-78.055 173.79-174.052 174.080zM778.24 209.92c0-26.726-32.563-48.64-59.392-48.64-14.394 0.015-27.651 4.865-38.241 13.012s-3.026-0.109-3.334 0.505-2.458 1.024-2.97 1.638-7.168 3.072-8.704 4.915l-307.2 370.995v-342.426c0-26.726-29.594-48.64-56.32-48.64s-56.32 21.914-56.32 48.64v476.16c0 26.726 32.563 48.64 59.392 48.64 11.223-0.072 21.786-2.827 31.102-7.655 8.053-3.014 15.319-7.415 21.618-12.898l307.728-368.566v340.48c0 26.726 29.594 48.64 56.32 48.64s56.32-21.914 56.32-48.64z" />
<glyph unicode="&#xe618;" glyph-name="pinterest" d="M362.189 134.451c-3.584 32.563-6.861 81.92 1.434 117.862 7.475 32.051 48.23 204.288 48.23 204.288-7.777 17.428-12.305 37.767-12.305 59.163 0 0.801 0.006 1.6 0.019 2.397-0.002 57.019 33.074 99.72 74.341 99.72 35.021 0 52.019-26.317 52.019-57.856 0-35.226-22.426-87.962-33.997-136.806-1.24-4.543-1.953-9.76-1.953-15.143 0-32.971 26.728-59.699 59.699-59.699 1.155 0 2.303 0.033 3.442 0.098 72.853-0.007 129.071 76.998 129.071 188.204 0 98.406-70.656 167.219-171.622 167.219-116.941 0-185.549-87.654-185.549-178.381 0.096-35.28 11.606-67.852 31.030-94.24 1.676-1.733 2.893-4.641 2.893-7.832 0-1.286-0.198-2.526-0.564-3.692-3.048-12.918-10.216-40.873-11.343-46.505-1.843-7.475-5.939-9.114-13.722-5.53-51.2 23.859-83.456 98.918-83.456 159.232-0.307 129.638 93.901 248.73 271.258 248.73 142.541 0 253.338-101.581 253.338-237.363 0-141.619-89.293-256-213.299-256-41.677 0-80.794 21.606-94.208 47.206 0 0-20.48-78.438-25.6-97.69-9.318-35.738-34.304-80.486-51.2-107.725-2.962-2.527-6.835-4.065-11.068-4.065-8.493 0-15.541 6.192-16.874 14.308z" />
<glyph unicode="&#xe619;" glyph-name="pinterest-circle" d="M512 954.88c-279.942 0-506.88-226.938-506.88-506.88s226.938-506.88 506.88-506.88c279.942 0 506.88 226.938 506.88 506.88s-226.938 506.88-506.88 506.88zM565.76 267.264c-45.568 0-88.371 23.654-103.014 51.2 0 0-22.528-85.811-27.955-106.803-10.24-39.014-37.581-87.962-55.91-117.862-24.576-14.643-30.72 10.854-30.72 10.854-3.891 35.533-7.475 90.112 1.536 128.922 8.192 35.123 52.736 223.437 52.736 223.437-8.427 18.985-13.334 41.131-13.334 64.424 0 0.931 0.008 1.861 0.023 2.788-0.002 62.324 36.248 109.019 81.304 109.019 38.298 0 56.832-28.774 56.832-63.283 0-38.605-24.576-96.256-37.274-149.709-10.24-44.749 22.426-81.203 66.56-81.203 79.872 0 141.312 84.275 141.312 205.824 0 107.622-77.312 182.886-187.802 182.886-127.898 0-202.854-95.437-202.854-195.072 0.117-38.506 12.66-74.060 33.826-102.887 1.893-1.903 3.266-5.123 3.266-8.665 0-1.336-0.195-2.627-0.559-3.845-3.355-14.139-10.932-44.654-12.468-51.105-1.946-8.192-6.554-10.24-15.053-6.042-56.115 26.419-90.931 108.339-90.931 174.285 0 141.722 102.4 271.974 296.96 271.974 155.648 0 276.48-111.104 276.48-259.584 0-154.931-97.382-279.552-232.96-279.552z" />
<glyph unicode="&#xe61a;" glyph-name="pinterest-square" d="M0 960v-1024h1024v1024zM565.76 267.264c-45.568 0-88.371 23.654-103.014 51.2 0 0-22.528-85.811-27.955-106.803-10.24-39.014-37.581-87.962-55.91-117.862-24.576-14.643-30.72 10.854-30.72 10.854-3.891 35.533-7.475 90.112 1.536 128.922 8.192 35.123 52.736 223.437 52.736 223.437-8.427 18.985-13.334 41.131-13.334 64.424 0 0.931 0.008 1.861 0.023 2.788-0.002 62.324 36.248 109.019 81.304 109.019 38.298 0 56.832-28.774 56.832-63.283 0-38.605-24.576-96.256-37.274-149.709-10.24-44.749 22.426-81.203 66.56-81.203 79.872 0 141.312 84.275 141.312 205.824 0 107.622-77.312 182.886-187.802 182.886-127.898 0-202.854-95.437-202.854-195.072 0.117-38.506 12.66-74.060 33.826-102.887 1.893-1.903 3.266-5.123 3.266-8.665 0-1.336-0.195-2.627-0.559-3.845-3.355-14.139-10.932-44.654-12.468-51.105-1.946-8.192-6.554-10.24-15.053-6.042-56.115 26.419-90.931 108.339-90.931 174.285 0 141.722 102.4 271.974 296.96 271.974 155.648 0 276.48-111.104 276.48-259.584 0-154.931-97.382-279.552-232.96-279.552z" />
<glyph unicode="&#xe61b;" glyph-name="pinterest-square-round" d="M849.92 960h-675.84c-96.142 0-174.080-77.938-174.080-174.080v-675.84c0.29-96.025 78.055-173.79 174.052-174.080h675.868c96.025 0.29 173.79 78.055 174.080 174.052v675.868c0 96.142-77.938 174.080-174.080 174.080zM565.76 267.264c-45.568 0-88.371 23.654-103.014 51.2 0 0-22.528-85.811-27.955-106.803-10.24-39.014-37.581-87.962-55.91-117.862-24.576-14.643-30.72 10.854-30.72 10.854-3.891 35.533-7.475 90.112 1.536 128.922 8.192 35.123 52.736 223.437 52.736 223.437-8.427 18.985-13.334 41.131-13.334 64.424 0 0.931 0.008 1.861 0.023 2.788-0.002 62.324 36.248 109.019 81.304 109.019 38.298 0 56.832-28.774 56.832-63.283 0-38.605-24.576-96.256-37.274-149.709-10.24-44.749 22.426-81.203 66.56-81.203 79.872 0 141.312 84.275 141.312 205.824 0 107.622-77.312 182.886-187.802 182.886-127.898 0-202.854-95.437-202.854-195.072 0.117-38.506 12.66-74.060 33.826-102.887 1.893-1.903 3.266-5.123 3.266-8.665 0-1.336-0.195-2.627-0.559-3.845-3.355-14.139-10.932-44.654-12.468-51.105-1.946-8.192-6.554-10.24-15.053-6.042-56.115 26.419-90.931 108.339-90.931 174.285 0 141.722 102.4 271.974 296.96 271.974 155.648 0 276.48-111.104 276.48-259.584 0-154.931-97.382-279.552-232.96-279.552z" />
<glyph unicode="&#xe61c;" glyph-name="tumblr" d="M659.046 264.499c-14.221-6.006-30.722-9.72-48.028-10.235-49.457-1.746-58.059 34.094-58.059 60.616v194.56h122.88v92.16h-122.88v153.6h-92.16c-1.434 0-2.867-1.331-3.174-4.608-5.325-47.923-27.546-131.994-119.706-165.581v-75.571h61.44v-204.8c0-68.71 49.869-166.4 183.706-163.84 45.158 0.819 94.822 19.661 105.984 35.942z" />
<glyph unicode="&#xe61d;" glyph-name="tumblr-circle" d="M512 954.88c-279.942 0-506.88-226.938-506.88-506.88s226.938-506.88 506.88-506.88c279.942 0 506.88 226.938 506.88 506.88s-226.938 506.88-506.88 506.88zM604.774 86.938c-157.491-2.662-205.414 112.23-205.414 193.126v229.376h-61.44v100.25c92.16 39.629 118.682 140.186 124.928 196.71h90.112v-204.8h122.88v-92.16h-122.88v-218.214c0-30.72 13.005-72.806 70.861-71.68 21.428 0.781 41.588 5.298 60.147 12.916l39.795-103.54c-13.005-18.842-65.843-41.062-118.989-41.984z" />
<glyph unicode="&#xe61e;" glyph-name="tumblr-square" d="M0 960v-1024h1024v1024zM586.342 88.269c-157.491-2.662-207.462 112.23-207.462 193.126v228.045h-61.44v101.683c92.16 39.526 118.682 140.083 124.928 196.506h90.112v-206.029h122.88v-92.16h-122.88v-216.883c0-30.72 14.95-72.806 72.909-71.68 21.898 0.901 42.464 5.558 61.416 13.34l39.755-103.555c-13.824-19.251-67.072-41.062-120.218-42.394z" />
<glyph unicode="&#xe61f;" glyph-name="tumblr-square-round" d="M849.92 960h-675.84c-96.025-0.29-173.79-78.055-174.080-174.052v-675.868c0.29-96.025 78.055-173.79 174.052-174.080h675.868c96.025 0.29 173.79 78.055 174.080 174.052v675.868c-0.29 96.025-78.055 173.79-174.052 174.080zM585.114 88.269c-157.491-2.662-206.234 112.23-206.234 193.126v228.045h-61.44v101.683c92.16 39.526 118.682 140.083 124.928 196.506h90.112v-206.029h122.88v-92.16h-122.88v-216.883c0-30.72 13.824-72.806 71.68-71.68 21.571 0.783 41.871 5.3 60.577 12.92l39.775-103.544c-13.21-18.842-66.253-40.653-119.398-41.984z" />
<glyph unicode="&#xe620;" glyph-name="twitter" d="M858.522 663.040c-23.857-10.869-51.531-18.767-80.555-22.291 28.237 17.557 50.532 44.865 61.421 77.399-25.705-14.694-55.964-26.667-88.198-33.193-27.873 27.513-64.825 44.85-105.827 44.85-78.61 0-142.336-63.726-142.336-142.336 0-11.515 1.367-22.71 3.948-33.432-118.708 7.191-222.905 63.629-292.688 149.231-12.681-19.758-19.831-44.42-19.831-70.752 0-49.142 24.904-92.468 62.78-118.044-23.257 0.455-45.338 6.966-64.611 17.864 0.706-0.981 0.706-1.596 0.706-2.108-0.001-0.149-0.001-0.325-0.001-0.502 0-68.514 48.442-125.713 112.945-139.215-10.294-3.335-23.179-5.16-36.489-5.16-9.476 0-18.736 0.925-27.694 2.689 19.659-57.163 71.958-97.794 133.899-98.86-47.862-37.921-109.236-60.828-175.96-60.828-0.159 0-0.318 0-0.478 0-0.092 0-0.229 0-0.367 0-11.806 0-23.446 0.707-34.882 2.081 62.878-40.203 138.142-64.033 218.971-64.033 0.075 0 0.15 0 0.225 0 261.62 0 404.98 216.678 404.98 404.48q0 9.216 0 18.432c27.585 20.438 50.83 44.855 69.379 72.672z" />
<glyph unicode="&#xe621;" glyph-name="twitter-circle" d="M512 954.88c-279.942 0-506.88-226.938-506.88-506.88s226.938-506.88 506.88-506.88c279.942 0 506.88 226.938 506.88 506.88s-226.938 506.88-506.88 506.88zM784.794 587.878q0-9.011 0-18.227c0-185.958-141.619-400.486-400.486-400.486-80.058 0.189-154.526 23.96-216.87 64.73 11.533-2.173 23.118-2.88 34.869-2.88 0.085 0 0.17 0 0.254 0 0.131 0 0.302 0 0.472 0 66.051 0 126.807 22.675 174.907 60.665-61.853 0.624-113.488 40.63-131.892 95.832 7.676-0.6 16.831-1.513 26.199-1.513 13.201 0 25.978 1.813 38.097 5.203-65.72 13.322-113.633 69.925-113.633 137.718 0 0.028 0 0.056 0 0.084 0 0.61 0 1.224 0 1.736 18.392-10.421 40.264-16.859 63.573-17.607-37.736 25.636-62.362 68.505-62.362 117.125 0 26.070 7.080 50.487 19.423 71.432 69.297-85.924 172.357-141.63 288.56-147.665-1.365 9.57-2.707 20.604-2.707 31.952 0 77.762 63.038 140.8 140.8 140.8 40.469 0 76.951-17.074 102.634-44.411 33.785 6.707 63.733 18.573 90.733 34.836-12.074-33.811-33.793-60.841-62.092-78.182 29.358 3.275 56.65 11.063 81.951 22.483-21.158-29.328-44.602-53.489-71.598-73.051z" />
<glyph unicode="&#xe622;" glyph-name="twitter-square" d="M0 960v-1024h1024v1024zM784.794 587.878q0-9.011 0-18.227c0-185.958-141.619-400.486-400.486-400.486-80.058 0.189-154.526 23.96-216.87 64.73 11.533-2.173 23.118-2.88 34.869-2.88 0.085 0 0.17 0 0.254 0 0.131 0 0.302 0 0.472 0 66.051 0 126.807 22.675 174.907 60.665-61.853 0.624-113.488 40.63-131.892 95.832 7.676-0.6 16.831-1.513 26.199-1.513 13.201 0 25.978 1.813 38.097 5.203-65.72 13.322-113.633 69.925-113.633 137.718 0 0.028 0 0.056 0 0.084 0 0.61 0 1.224 0 1.736 18.392-10.421 40.264-16.859 63.573-17.607-37.736 25.636-62.362 68.505-62.362 117.125 0 26.070 7.080 50.487 19.423 71.432 69.297-85.924 172.357-141.63 288.56-147.665-1.365 9.57-2.707 20.604-2.707 31.952 0 77.762 63.038 140.8 140.8 140.8 40.469 0 76.951-17.074 102.634-44.411 33.785 6.707 63.733 18.573 90.733 34.836-12.074-33.811-33.793-60.841-62.092-78.182 29.358 3.273 56.65 11.062 81.95 22.483-21.157-29.327-44.602-53.489-71.597-73.051z" />
<glyph unicode="&#xe623;" glyph-name="twitter-square-round" d="M849.92 960h-675.84c-96.142 0-174.080-77.938-174.080-174.080v-675.84c0-96.142 77.938-174.080 174.080-174.080h675.84c96.142 0 174.080 77.938 174.080 174.080v675.84c0 96.142-77.938 174.080-174.080 174.080zM784.794 587.878q0-9.011 0-18.227c0-185.958-141.619-400.486-400.486-400.486-80.058 0.189-154.526 23.96-216.87 64.73 11.533-2.173 23.118-2.88 34.869-2.88 0.085 0 0.17 0 0.254 0 0.131 0 0.302 0 0.472 0 66.051 0 126.807 22.675 174.907 60.665-61.853 0.624-113.488 40.63-131.892 95.832 7.676-0.6 16.831-1.513 26.199-1.513 13.201 0 25.978 1.813 38.097 5.203-65.72 13.322-113.633 69.925-113.633 137.718 0 0.028 0 0.056 0 0.084 0 0.61 0 1.224 0 1.736 18.392-10.421 40.264-16.859 63.573-17.607-37.736 25.636-62.362 68.505-62.362 117.125 0 26.070 7.080 50.487 19.423 71.432 69.297-85.924 172.357-141.63 288.56-147.665-1.365 9.57-2.707 20.604-2.707 31.952 0 77.762 63.038 140.8 140.8 140.8 40.469 0 76.951-17.074 102.634-44.411 33.785 6.707 63.733 18.573 90.733 34.836-12.074-33.811-33.793-60.841-62.092-78.182 29.358 3.273 56.65 11.062 81.95 22.483-21.157-29.327-44.602-53.489-71.597-73.051z" />
<glyph unicode="&#xe624;" glyph-name="vimeo" d="M866.816 613.069q-4.71-103.629-144.794-283.955-144.896-188.314-245.146-188.314-62.157 0-105.165 114.688l-57.344 210.227q-31.846 114.586-68.608 114.688-7.987 0-55.808-33.485l-33.382 43.008q52.634 46.182 103.629 92.16 70.144 60.621 105.267 63.795 82.944 7.987 102.4-113.357 20.48-130.867 28.672-162.816 23.962-108.646 52.634-108.544 22.323 0 66.97 70.451t47.821 107.52q6.349 60.826-47.821 60.826c-19.212-0.202-37.383-4.443-53.774-11.911q53.569 171.86 201.23 167.15 109.568-3.379 103.219-142.131z" />
<glyph unicode="&#xe625;" glyph-name="vimeo-circle" d="M512 954.88c-279.942 0-506.88-226.938-506.88-506.88s226.938-506.88 506.88-506.88c279.942 0 506.88 226.938 506.88 506.88s-226.938 506.88-506.88 506.88zM844.493 602.624q-4.403-97.178-135.782-266.24-135.27-176.23-229.683-176.23-58.266 0-98.509 107.418l-53.658 197.018q-29.901 107.418-64.102 107.418-7.475 0-52.224-31.334l-31.334 40.448q49.254 43.315 97.075 86.63 65.741 56.73 98.714 59.597 77.619 7.373 96.051-106.189 19.354-122.88 26.931-152.474 22.426-101.786 49.357-101.683 20.48 0 62.771 66.048t44.851 100.454q5.939 56.934-44.749 57.037c-17.898-0.281-34.791-4.288-50.032-11.276q49.212 160.985 187.35 156.479 102.4-3.072 96.973-133.12z" />
<glyph unicode="&#xe626;" glyph-name="vimeo-square" d="M0 960v-1024h1024v1024zM844.493 602.624q-4.403-97.178-135.782-266.24-135.27-176.23-229.683-176.23-58.266 0-98.509 107.418l-53.658 197.018q-29.901 107.418-64.102 107.418-7.475 0-52.224-31.334l-31.334 40.448q49.254 43.315 97.075 86.63 65.741 56.73 98.714 59.597 77.619 7.373 96.051-106.189 19.354-122.88 26.931-152.474 22.426-101.786 49.357-101.683 20.48 0 62.771 66.048t44.851 100.454q5.939 56.934-44.749 57.037c-17.898-0.281-34.791-4.288-50.032-11.276q49.212 160.985 187.35 156.479 102.4-3.072 96.973-133.12z" />
<glyph unicode="&#xe627;" glyph-name="vimeo-square-round" d="M849.92 960h-675.84c-96.142 0-174.080-77.938-174.080-174.080v-675.84c0-96.142 77.938-174.080 174.080-174.080h675.84c96.142 0 174.080 77.938 174.080 174.080v675.84c0 96.142-77.938 174.080-174.080 174.080zM844.493 602.624q-4.403-97.178-135.782-266.24-135.27-176.23-229.683-176.23-58.266 0-98.509 107.418l-53.658 197.018q-29.901 107.418-64.102 107.418-7.475 0-52.224-31.334l-31.334 40.448q49.254 43.315 97.075 86.63 65.741 56.73 98.714 59.597 77.619 7.373 96.051-106.189 19.354-122.88 26.931-152.474 22.426-101.786 49.357-101.683 20.48 0 62.771 66.048t44.851 100.454q5.939 56.934-44.749 57.037c-17.898-0.281-34.791-4.288-50.032-11.276q49.212 160.985 187.35 156.479 102.4-3.072 96.973-133.12z" />
<glyph unicode="&#xe628;" glyph-name="youtube" d="M876.339 599.757s-8.704 51.2-30.72 73.216c-28.058 29.389-60.211 25.395-74.65 27.136-103.219 7.578-258.97 3.891-258.97 3.891v0s-154.829 4.096-258.048-3.379c-14.438-1.741-45.875 0-73.933-29.184-22.118-22.426-32.256-72.192-32.256-72.192-6.075-35.296-9.781-76.223-10.236-117.931l-0.004-56.456c0.496-42.544 4.201-83.828 10.885-124.105s7.957-46.494 30.075-68.51c28.058-29.389 65.638-28.467 81.92-31.539 58.982-5.632 251.187-7.373 251.187-7.373s155.238 0 258.458 7.68c28.968 0.275 55.107 12.164 74.029 31.226 22.125 21.818 32.262 72.403 32.262 72.403 6.050 35.579 9.755 76.863 10.236 118.922l0.004 56.796c-0.5 42.548-4.205 83.831-10.885 124.11zM436.019 356.454v207.36l198.861-104.038z" />
<glyph unicode="&#xe629;" glyph-name="youtube-circle" d="M512 954.88c-279.942 0-506.88-226.938-506.88-506.88s226.938-506.88 506.88-506.88c279.942 0 506.88 226.938 506.88 506.88s-226.938 506.88-506.88 506.88zM870.4 424.141c0-59.802-6.861-119.501-6.861-119.501s-6.656-51.2-28.877-73.421c-18.915-19.106-45.053-31.030-73.978-31.334-103.584-7.885-258.925-7.885-258.925-7.885s-192.205 1.741-251.29 7.475c-16.486 3.072-53.248 2.15-81.408 31.642-22.118 22.323-29.082 73.523-29.082 73.523s-6.861 59.699-6.861 119.501v56.115c0.279 41.935 2.764 82.946 7.345 123.321s6.172 44.001 28.392 66.426c28.16 29.491 59.597 26.317 74.035 27.955 103.526 7.578 258.867 0.922 258.867 0.922v0s155.034 6.656 258.56-0.819c14.438-1.741 45.875 4.813 73.933-24.678 22.118-22.426 29.184-73.421 29.184-73.421s6.963-59.802 6.963-119.706zM425.472 356.147l199.68 103.526-199.782 104.346 0.102-207.872z" />
<glyph unicode="&#xe62a;" glyph-name="youtube-square" d="M435.712 356.147l199.68 103.526-199.782 104.346 0.102-207.872zM0 960v-1024h1024v1024zM880.64 424.141c0-59.802-6.861-119.501-6.861-119.501s-6.656-51.2-28.877-73.421c-18.915-19.106-45.053-31.030-73.978-31.334-103.584-7.885-258.925-7.885-258.925-7.885s-192.205 1.741-251.29 7.475c-16.486 3.072-53.248 2.15-81.408 31.642-22.118 22.323-29.082 73.523-29.082 73.523s-6.861 59.699-6.861 119.501v56.115c0.296 42.175 2.78 83.401 7.347 123.996s6.17 44.656 28.391 67.082c28.16 29.491 59.597 27.546 74.035 29.286 103.526 7.475 258.867 3.379 258.867 3.379v0s155.034 4.096 258.56-3.379c14.438-1.741 45.875 2.253 73.933-27.238 22.118-22.426 29.184-73.421 29.184-73.421s6.963-59.802 6.963-119.706z" />
<glyph unicode="&#xe62b;" glyph-name="youtube-square-round" d="M435.712 356.147l199.68 103.526-199.782 104.346 0.102-207.872zM849.92 960h-675.84c-96.142 0-174.080-77.938-174.080-174.080v-675.84c0.29-96.025 78.055-173.79 174.052-174.080h675.868c96.025 0.29 173.79 78.055 174.080 174.052v675.868c0 96.142-77.938 174.080-174.080 174.080zM880.64 424.141c0-59.802-6.861-119.501-6.861-119.501s-6.656-51.2-28.877-73.421c-18.915-19.106-45.053-31.030-73.978-31.334-103.584-7.885-258.925-7.885-258.925-7.885s-192.205 1.741-251.29 7.475c-16.486 3.072-53.248 2.15-81.408 31.642-22.118 22.323-29.082 73.523-29.082 73.523s-6.861 59.699-6.861 119.501v56.115c0.296 42.175 2.78 83.401 7.347 123.996s6.17 44.656 28.391 67.082c28.16 29.491 59.597 27.546 74.035 29.286 103.526 7.475 258.867 3.379 258.867 3.379v0s155.034 4.096 258.56-3.379c14.438-1.741 45.875 2.253 73.933-27.238 22.118-22.426 29.184-73.421 29.184-73.421s6.963-59.802 6.963-119.706z" />
<glyph unicode="&#xe62c;" glyph-name="facebook-circle-outline" d="M512-58.88c-279.942 0-506.88 226.938-506.88 506.88s226.938 506.88 506.88 506.88c279.942 0 506.88-226.938 506.88-506.88-0.349-279.801-227.079-506.531-506.846-506.88zM512 944.64c-274.287 0-496.64-222.353-496.64-496.64s222.353-496.64 496.64-496.64c274.287 0 496.64 222.353 496.64 496.64-0.291 274.169-222.471 496.349-496.612 496.64zM573.44 89.6h-133.12v327.68h-122.88v133.12h122.88v85.504c0 107.52 59.597 171.725 163.021 171.725 0.116 0 0.252 0 0.389 0 32.33 0 64.235-1.823 95.617-5.371l-2.925 0.353v-122.88h-68.813c-47.514 0-54.17-19.763-54.17-56.218v-73.114h124.006l-17.51-133.12h-106.496zM450.56 99.84h112.64v327.68h107.725l15.155 112.64h-122.88v83.251c0 34.509 5.734 66.458 64.41 66.458h58.47v103.014c-23.71 2.821-51.171 4.431-79.008 4.431-2.212 0-4.422-0.010-6.629-0.030-96.738 0.105-149.883-60.311-149.883-161.38v-95.744h-122.88v-112.64h122.88z" />
<glyph unicode="&#xe62d;" glyph-name="flickr-circle-outline" d="M512-58.88c-279.942 0-506.88 226.938-506.88 506.88s226.938 506.88 506.88 506.88c279.942 0 506.88-226.938 506.88-506.88-0.349-279.801-227.079-506.531-506.846-506.88zM512 944.64c-274.287 0-496.64-222.353-496.64-496.64s222.353-496.64 496.64-496.64c274.287 0 496.64 222.353 496.64 496.64-0.291 274.169-222.471 496.349-496.612 496.64zM307.2 289.075c-87.64 0.175-158.618 71.261-158.618 158.925 0 87.772 71.153 158.925 158.925 158.925s158.925-71.153 158.925-158.924c-0.117-87.797-71.317-158.925-159.129-158.925-0.036 0-0.072 0-0.108 0zM307.2 596.275c-81.984-0.175-148.377-66.676-148.377-148.684 0-82.116 66.568-148.685 148.685-148.685s148.685 66.568 148.685 148.685c0 0.144 0 0.288-0.001 0.432-0.117 82.119-66.732 148.663-148.889 148.663-0.036 0-0.072 0-0.108 0zM716.8 289.075c-0.061 0-0.133 0-0.205 0-87.772 0-158.925 71.153-158.925 158.925s71.153 158.925 158.925 158.925c87.772 0 158.925-71.153 158.925-158.925-0.116-87.653-71.083-158.692-158.698-158.925zM716.8 596.275c-0.061 0-0.132 0-0.204 0-82.116 0-148.685-66.568-148.685-148.685s66.568-148.685 148.685-148.685c82.116 0 148.685 66.568 148.685 148.685 0 0.144 0 0.288-0.001 0.432-0.116 81.975-66.499 148.43-148.458 148.662z" />
<glyph unicode="&#xe62e;" glyph-name="google-circle-outline" d="M512-58.88c-279.942 0-506.88 226.938-506.88 506.88s226.938 506.88 506.88 506.88c279.942 0 506.88-226.938 506.88-506.88-0.349-279.801-227.079-506.531-506.846-506.88zM512 944.64c-274.287 0-496.64-222.353-496.64-496.64s222.353-496.64 496.64-496.64c274.287 0 496.64 222.353 496.64 496.64-0.291 274.169-222.471 496.349-496.612 496.64zM363.008 181.76c-4.68-0.294-10.149-0.461-15.657-0.461-147.040 0-266.24 119.2-266.24 266.24s119.2 266.24 266.24 266.24c5.508 0 10.977-0.167 16.403-0.497 0.075 0.046 1.045 0.051 2.016 0.051 67.947 0 129.712-26.471 175.543-69.664l3.866-3.567-78.234-74.854-3.584 3.379c-25.242 24.049-59.488 38.845-97.189 38.845-1.112 0-2.221-0.013-3.327-0.038-86.462-0.978-156.308-71.43-156.308-158.195 0-0.435 0.002-0.87 0.005-1.305 0-87.895 70.246-161.521 156.467-161.521 1.647-0.068 3.58-0.107 5.522-0.107 63.647 0 117.558 41.685 135.921 99.244l-146.051 1.010v102.4h255.078l0.717-3.584c2.611-13.117 4.136-28.223 4.198-43.674 0-152.934-104.96-259.942-255.385-259.942zM363.008 703.078c-4.59 0.294-9.952 0.461-15.353 0.461-141.385 0-256-114.615-256-256s114.615-256 256-256c5.401 0 10.764 0.167 16.082 0.497 145.908-0.036 244.417 99.599 244.417 248.796 0.001 0.237 0.002 0.517 0.002 0.798 0 13.109-1.193 25.939-3.476 38.387l-236.039-1.297v-81.92h148.173l-0.922-3.789c-6.246-40.346-46.285-115.712-152.883-115.712-93.936 0-170.086 76.15-170.086 170.086s76.15 170.086 170.086 170.086c0.966 0.022 2.103 0.035 3.244 0.035 38.68 0 73.973-14.5 100.74-38.362l63.235 61.572c-43.387 39.266-101.206 63.297-164.636 63.297-0.908 0-1.815-0.005-2.721-0.015zM849.92 335.36h-81.92v71.68h-71.68v81.92h71.68v71.68h81.92v-71.68h71.68v-81.92h-71.68zM778.24 345.6h61.44v71.68h71.68v61.44h-71.68v71.68h-61.44v-71.68h-71.68v-61.44h71.68z" />
<glyph unicode="&#xe62f;" glyph-name="instagram-circle-outline" d="M512-58.88c-279.942 0-506.88 226.938-506.88 506.88s226.938 506.88 506.88 506.88c279.942 0 506.88-226.938 506.88-506.88-0.349-279.801-227.079-506.531-506.846-506.88zM512 944.64c-274.287 0-496.64-222.353-496.64-496.64s222.353-496.64 496.64-496.64c274.287 0 496.64 222.353 496.64 496.64-0.291 274.169-222.471 496.349-496.612 496.64zM512 115.2c-88.576 0-100.25 0-135.373 1.946-29.328 0.637-57.147 6.29-82.895 16.133-43.768 17.371-79.082 52.685-96.613 96.976-9.68 25.226-15.334 53.045-15.968 82.101-1.643 35.395-1.95 47.069-1.95 135.645s0 100.25 1.946 135.373c0.637 29.328 6.29 57.147 16.133 82.895 17.371 43.768 52.685 79.082 96.976 96.613 25.226 9.68 53.045 15.334 82.101 15.968 35.395 1.643 47.069 1.95 135.645 1.95s100.25 0 135.373-1.946c29.328-0.637 57.147-6.29 82.895-16.133 43.768-17.371 79.082-52.685 96.613-96.976 9.68-25.226 15.334-53.045 15.968-82.101 1.643-35.395 1.95-47.069 1.95-135.645s0-100.25-1.946-135.373c-0.637-29.328-6.29-57.147-16.133-82.895-17.371-43.768-52.685-79.082-96.976-96.613-25.226-9.68-53.045-15.334-82.101-15.968-35.395-1.541-47.069-1.95-135.645-1.95zM512 770.56c-88.269 0-99.942 0-134.861-1.946-28.135-0.593-54.835-5.988-79.557-15.393-41.161-16.353-74.393-49.619-90.863-91.333-9.246-24.193-14.64-50.893-15.227-78.775-1.54-35.171-1.95-46.845-1.95-135.114s0-99.942 1.946-134.861c0.593-28.135 5.988-54.835 15.393-79.557 16.353-41.161 49.619-74.393 91.333-90.863 24.193-9.246 50.893-14.64 78.775-15.227 35.171-1.54 46.845-1.95 135.114-1.95s99.942 0 134.861 1.946c28.135 0.593 54.835 5.988 79.557 15.393 41.161 16.353 74.393 49.619 90.863 91.333 9.246 24.193 14.64 50.893 15.227 78.775 1.54 35.171 1.95 46.845 1.95 135.114s0 99.942-1.946 134.861c-0.593 28.135-5.988 54.835-15.393 79.557-16.353 41.161-49.619 74.393-91.333 90.863-24.193 9.246-50.893 14.64-78.775 15.227-35.171 1.54-46.742 1.95-135.114 1.95zM512 174.285c-87.45 0-97.894 0-133.12 1.946-22.498 0.276-43.929 4.496-63.746 11.997-28.725 11.388-52.031 34.694-63.576 63.93-7.154 19.177-11.229 40.444-11.429 62.635-1.639 34.904-1.946 45.246-1.946 133.208s0 97.894 1.946 133.12c0.276 22.498 4.496 43.929 11.997 63.746 11.388 28.725 34.694 52.031 63.93 63.576 19.209 7.166 40.513 11.242 62.743 11.429 34.898 1.639 45.24 1.946 133.202 1.946s97.894 0 133.12-1.946c22.498-0.276 43.929-4.496 63.746-11.997 28.725-11.388 52.031-34.694 63.576-63.93 7.166-19.209 11.242-40.513 11.429-62.743 1.639-34.898 1.946-45.24 1.946-133.202s0-97.894-1.946-133.12c-0.276-22.498-4.496-43.929-11.997-63.746-11.388-28.725-34.694-52.031-63.93-63.576-19.209-7.166-40.513-11.242-62.743-11.429-35.308-1.537-45.752-1.844-133.202-1.844zM512 711.578c-87.245 0-97.587 0-132.198-1.946-21.319-0.271-41.624-4.266-60.407-11.361-26.101-10.346-47.32-31.565-57.826-58.184-6.937-18.265-10.932-38.57-11.2-59.774-1.537-34.726-1.947-45.069-1.947-132.314s0-97.587 1.946-132.198c0.271-21.319 4.266-41.624 11.361-60.407 10.346-26.101 31.565-47.32 58.184-57.826 18.265-6.937 38.57-10.932 59.774-11.2 34.726-1.537 45.069-1.947 132.314-1.947s97.587 0 132.198 1.946c21.319 0.271 41.624 4.266 60.407 11.361 26.101 10.346 47.32 31.565 57.826 58.184 6.937 18.265 10.932 38.57 11.2 59.774 1.537 34.726 1.947 45.069 1.947 132.314s0 97.587-1.946 132.198c-0.271 21.319-4.266 41.624-11.361 60.407-10.346 26.101-31.565 47.32-58.184 57.826-18.265 6.937-38.57 10.932-59.774 11.2-34.726 1.537-45.069 1.844-132.314 1.844zM512 274.637c-95.746 0-173.363 77.617-173.363 173.363s77.617 173.363 173.363 173.363c95.746 0 173.363-77.617 173.363-173.363-0.405-95.582-77.781-172.958-173.324-173.363zM512 611.226c-90.090 0-163.123-73.033-163.123-163.123s73.033-163.123 163.123-163.123c90.054 0 163.065 72.974 163.123 163.015-0.405 89.933-73.196 162.724-163.084 163.129zM512 333.722c-63.171 0-114.381 51.21-114.381 114.381s51.21 114.381 114.381 114.381c63.171 0 114.381-51.21 114.381-114.381 0-0.036 0-0.072 0-0.108-0.058-63.142-51.233-114.317-114.375-114.375zM512 552.141c-57.515 0-104.141-46.625-104.141-104.141s46.625-104.141 104.141-104.141c57.515 0 104.141 46.625 104.141 104.141 0 0 0 0 0 0-0.058 57.492-46.649 104.083-104.135 104.141zM686.899 578.458c-24.544 0-44.442 19.897-44.442 44.442s19.897 44.442 44.442 44.442c24.544 0 44.442-19.897 44.442-44.442 0 0 0 0 0 0-0.058-24.521-19.921-44.383-44.436-44.442zM686.899 657.101c-18.889 0-34.202-15.313-34.202-34.202s15.313-34.202 34.202-34.202c18.889 0 34.202 15.313 34.202 34.202s-15.313 34.202-34.202 34.202c0 0 0 0 0 0z" />
<glyph unicode="&#xe630;" glyph-name="linkedin-circle-outline" d="M512-58.88c-279.942 0-506.88 226.938-506.88 506.88s226.938 506.88 506.88 506.88c279.942 0 506.88-226.938 506.88-506.88-0.349-279.801-227.079-506.531-506.846-506.88zM512 944.64c-274.287 0-496.64-222.353-496.64-496.64s222.353-496.64 496.64-496.64c274.287 0 496.64 222.353 496.64 496.64-0.291 274.169-222.471 496.349-496.612 496.64zM348.16 140.8h-143.36v419.84h143.36zM215.040 151.040h122.88v399.36h-122.88zM278.63 601.6c-43.603 0-78.95 35.347-78.95 78.95s35.347 78.95 78.95 78.95c43.603 0 78.95-35.347 78.95-78.95-0.058-43.58-35.371-78.892-78.945-78.95zM278.63 749.261c-37.948 0-68.71-30.763-68.71-68.71s30.763-68.71 68.71-68.71c37.948 0 68.71 30.763 68.71 68.71 0 0.061 0 0.133 0 0.205 0 37.968-30.75 68.755-68.705 68.813zM819.2 140.8h-133.12v199.782c0 56.627-5.018 103.526-61.44 103.526-62.669 0-71.68-48.128-71.68-100.045v-203.264h-133.12v419.84h133.12v-50.483c24.541 34.229 64.203 56.267 109.012 56.267 1.276 0 2.547-0.018 3.814-0.053 138.566 0.004 153.414-96.252 153.414-200.29zM696.32 151.040h112.64v215.040c0 114.074-22.528 190.054-145.101 190.054-1.273 0.046-2.768 0.072-4.269 0.072-46.997 0-88.045-25.471-110.093-63.362l-0.326-3.782h-6.451v61.338h-112.64v-399.36h112.64v192.922c0 51.2 9.626 110.285 81.92 110.285s71.68-68.403 71.68-113.766z" />
<glyph unicode="&#xe631;" glyph-name="newswire-circle-outline" d="M512-58.88c-279.942 0-506.88 226.938-506.88 506.88s226.938 506.88 506.88 506.88c279.942 0 506.88-226.938 506.88-506.88-0.349-279.801-227.079-506.531-506.846-506.88zM512 944.64c-274.287 0-496.64-222.353-496.64-496.64s222.353-496.64 496.64-496.64c274.287 0 496.64 222.353 496.64 496.64-0.291 274.169-222.471 496.349-496.612 496.64zM716.8 156.16c-14.784 0.072-28.388 5.066-39.271 13.426-1.251 0.006-2.516 0.527-3.548 1.332-1.17 0.477-2.187 1.133-3.064 1.94l-1.938 1.12c-1.713 1.085-3.145 2.451-4.269 4.049l-296.070 360.086v-327.68c0-30.72-32.87-53.76-61.44-53.76s-61.44 23.040-61.44 53.76v475.648c0 30.72 33.178 53.76 61.44 53.76 11.869-0.038 23.012-3.107 32.708-8.472l1.084-0.539c7.181-3.175 13.278-7.566 18.298-12.97l296.070-358.127v326.349c0 30.72 32.87 53.76 61.44 53.76s61.44-23.040 61.44-53.76v-476.16c0-30.31-33.178-53.76-61.44-53.76zM679.322 179.61c1.51-0.101 2.88-0.623 4.016-1.449 9.063-7.309 20.743-11.747 33.46-11.761 23.555 0 51.203 19.456 51.203 43.52v476.16c0 24.474-27.955 43.52-51.2 43.52s-51.2-19.046-51.2-43.52v-354.714l-313.754 380.006c-4.371 4.24-9.532 7.695-15.238 10.117l-1.965 1.045c-7.92 4.426-17.374 7.042-27.436 7.066-23.559 0-51.207-19.456-51.207-43.52v-476.16c0-24.474 27.955-43.52 51.2-43.52s51.2 19.046 51.2 43.52v356.659l313.754-381.952c0.598-0.66 1.27-1.235 2.009-1.717 1.437-0.815 2.645-1.697 3.741-2.7z" />
<glyph unicode="&#xe632;" glyph-name="pinterest-circle-outline" d="M512-58.88c-279.942 0-506.88 226.938-506.88 506.88s226.938 506.88 506.88 506.88c279.942 0 506.88-226.938 506.88-506.88-0.349-279.801-227.079-506.531-506.846-506.88zM512 944.64c-274.287 0-496.64-222.353-496.64-496.64s222.353-496.64 496.64-496.64c274.287 0 496.64 222.353 496.64 496.64-0.291 274.169-222.471 496.349-496.612 496.64zM365.056 84.48c0 0 0 0-0.001 0-2.807 0-5.481 0.565-7.917 1.586-6.807 3.614-11.916 9.962-13.853 17.577-4.342 39-7.516 92.351 1.495 131.467 7.68 33.075 47.821 202.752 52.326 221.696-8.356 19.442-13.216 42.072-13.216 65.837 0 0.506 0.002 1.012 0.007 1.517-0.001 64.025 37.99 114.201 86.425 114.201 37.683 0 62.157-26.522 62.157-68.403 0-25.395-10.24-58.061-20.48-92.16-5.939-19.149-12.083-39.014-16.589-58.163-1.258-4.554-1.98-9.784-1.98-15.183 0-13.614 4.596-26.155 12.322-36.154 11.78-14.239 29.615-23.331 49.573-23.331 0.536 0 1.071 0.007 1.605 0.020 78.871-0.002 136.113 84.376 136.113 200.702 0 104.653-75.059 177.766-182.579 177.766-128.512 0-197.837-97.894-197.837-189.952 0.053-37.324 12.141-71.814 32.591-99.809 2.658-2.813 4.49-7.208 4.49-12.032 0-1.704-0.229-3.355-0.657-4.923-1.915-7.856-5.090-21.066-7.854-32.125l-4.608-18.739c-0.656-4.681-3.428-8.601-7.301-10.816-2.064-0.931-4.389-1.451-6.835-1.451-3.088 0-5.982 0.828-8.473 2.275-58.902 27.4-94.127 112.597-94.127 178.747 0 133.12 94.515 277.094 302.080 277.094 160.87 0 282.214-113.766 282.214-264.704 0-162.304-102.4-284.672-238.387-284.672-40.038 0-80.998 18.432-100.966 44.237-6.246-23.962-20.48-79.36-25.088-95.642-10.24-40.96-39.936-92.16-56.422-119.194l-0.614-1.024-1.126-0.614c-4.635-3.202-10.288-5.254-16.394-5.627zM353.28 105.574c1.282-4.399 4.139-7.989 7.906-10.196 1.399-0.425 2.912-0.645 4.476-0.645 3.577 0 6.886 1.146 9.58 3.091 16.336 26.796 44.598 76.255 54.838 115.474 5.427 20.992 28.058 106.906 28.058 106.906l2.662 12.698 6.144-11.674c14.643-27.853 56.934-48.845 98.509-48.845 130.048 0 228.147 117.965 228.147 274.432 0.307 145.101-116.634 254.464-271.36 254.464-200.499 0-291.84-138.342-291.84-266.854 0-63.078 32.973-143.36 88.269-169.472 4.403-2.048 5.837-1.434 5.939-1.434s1.331 1.434 1.946 3.994l4.301 19.046c2.765 11.059 5.939 24.269 7.885 32.154 0.24 0.745 0.378 1.603 0.378 2.492 0 2.302-0.927 4.388-2.427 5.905-21.522 29.307-34.486 66.068-34.61 105.851 0 97.105 72.909 200.222 208.077 200.222 113.562 0 192.819-77.312 192.819-188.006 0-122.266-61.44-210.944-146.432-210.944-0.424-0.009-0.925-0.014-1.426-0.014-23.189 0-43.902 10.603-57.555 27.225-9.236 11.748-14.75 26.586-14.75 42.711 0 6.23 0.823 12.269 2.367 18.012 4.497 18.972 10.641 39.042 16.683 58.396 10.24 33.792 20.48 65.741 20.48 89.6 0 28.16-13.619 58.163-51.712 58.163-42.701 0-76.186-45.67-76.186-104.038-0.005-0.482-0.008-1.052-0.008-1.622 0-22.693 4.75-44.276 13.31-63.81l0.42-0.616v-1.843s-45.261-188.518-53.453-223.437c-8.704-37.376-5.632-89.805-1.434-127.181z" />
<glyph unicode="&#xe633;" glyph-name="tumblr-circle-outline" d="M512-58.88c-279.942 0-506.88 226.938-506.88 506.88s226.938 506.88 506.88 506.88c279.942 0 506.88-226.938 506.88-506.88-0.349-279.801-227.079-506.531-506.846-506.88zM512 944.64c-274.287 0-496.64-222.353-496.64-496.64s222.353-496.64 496.64-496.64c274.287 0 496.64 222.353 496.64 496.64-0.291 274.169-222.471 496.349-496.612 496.64zM581.427 84.48c-62.362 0-110.49 18.227-147.046 54.17-51.814 51.2-55.501 117.76-55.501 144.179v226.611h-71.68v106.394l5.734 1.331c97.382 40.96 120.013 144.589 124.723 187.29 0.614 5.53 1.946 8.499 99.021 6.554h6.042v-199.168h122.88v-102.4h-122.88v-215.040c-0.072-1.198-0.112-2.599-0.112-4.010 0-18.111 6.717-34.653 17.795-47.271 10.847-9.632 25.313-15.566 41.166-15.566 2.103 0 4.181 0.104 6.23 0.308 20.348 0.727 39.738 5.059 57.595 12.367l3.791 1.948 43.213-110.797-1.536-2.253c-13.824-20.48-68.096-43.622-123.904-44.544h-5.53zM317.44 519.68h71.68v-236.954c0-52.224 18.33-103.424 52.429-136.806 35.635-35.021 84.275-52.224 146.227-51.2v0c48.333 0.819 98.918 20.48 113.562 37.99l-37.581 95.539c-16.563-6.11-35.701-10.019-55.636-10.842-2.348-0.205-4.638-0.315-6.954-0.315-18.59 0-35.527 7.077-48.264 18.683-12.729 14.333-20.539 33.387-20.539 54.265 0 1.533 0.042 3.057 0.125 4.569l-0.009 225.070h122.88v81.92h-122.88v199.373c-40.96 0.614-75.674 0-85.914-0.819-5.53-45.875-26.726-148.173-129.126-191.078z" />
<glyph unicode="&#xe634;" glyph-name="vimeo-circle-outline" d="M512-58.88c-279.942 0-506.88 226.938-506.88 506.88s226.938 506.88 506.88 506.88c279.942 0 506.88-226.938 506.88-506.88-0.349-279.801-227.079-506.531-506.846-506.88zM512 944.64c-274.287 0-496.64-222.353-496.64-496.64s222.353-496.64 496.64-496.64c274.287 0 496.64 222.353 496.64 496.64-0.291 274.169-222.471 496.349-496.612 496.64zM479.027 155.034c-40.96 0-75.776 37.274-103.219 110.797l-53.862 197.427c-23.859 85.606-45.466 103.629-59.187 103.629-1.536 0-10.24-2.765-49.357-30.72l-3.994-2.765-37.274 48.026 3.584 3.174c33.894 29.696 66.56 58.88 97.075 86.528 45.158 39.014 78.336 58.88 101.581 61.44 54.784 5.12 88.781-31.949 101.171-110.49 13.005-81.92 22.016-133.12 26.931-152.166 18.739-85.197 35.84-97.894 44.339-97.894 6.758 0 23.347 8.294 58.47 63.693 27.238 43.11 42.086 76.083 44.032 98.202 1.946 18.637-0.819 32.256-8.294 40.96-7.295 6.813-17.122 10.996-27.927 10.996-1.199 0-2.387-0.052-3.56-0.153-16.973-0.19-33.172-3.939-47.812-10.535l-9.481-3.995 3.174 10.24c33.28 108.646 98.202 162.509 192.102 159.437 0.849 0.026 1.847 0.041 2.848 0.041 27.393 0 52.195-11.088 70.165-29.022 21.298-22.936 30.718-59.698 28.67-109.362v0c-2.97-65.638-49.050-156.058-136.806-269.005-90.726-118.477-169.677-178.483-233.37-178.483zM262.758 577.126c25.702 0 48.23-36.352 69.018-111.206l53.76-197.018c25.702-68.608 57.242-103.629 93.491-103.629 60.621 0 136.602 58.675 225.28 174.080 86.835 111.616 132.198 200.090 135.373 263.578v0c2.15 46.797-6.554 81.101-25.907 102.4-16.107 15.694-38.14 25.374-62.434 25.374-1.343 0-2.679-0.030-4.008-0.088-87.363 2.874-146.038-43.821-179.011-142.432 12.169 4.523 26.226 7.212 40.889 7.372 1.264 0.102 2.652 0.159 4.054 0.159 13.793 0 26.284-5.577 35.34-14.599 9.522-10.238 13.208-26.827 10.853-48.331-2.048-23.962-16.998-57.549-45.568-102.4-38.912-61.44-56.934-68.403-67.072-68.403-21.197 0-38.4 33.587-54.272 105.779-5.018 19.968-13.824 70.042-26.931 152.781-11.571 73.318-40.96 106.701-90.112 102.4-20.48-1.946-53.043-21.606-95.744-58.573-29.389-26.624-60.826-54.682-93.491-83.354l25.395-32.666c37.069 25.088 46.49 28.774 51.098 28.774z" />
<glyph unicode="&#xe635;" glyph-name="youtube-circle-outline" d="M512-58.88c-279.942 0-506.88 226.938-506.88 506.88s226.938 506.88 506.88 506.88c279.942 0 506.88-226.938 506.88-506.88-0.349-279.801-227.079-506.531-506.846-506.88zM512 944.64c-274.287 0-496.64-222.353-496.64-496.64s222.353-496.64 496.64-496.64c274.287 0 496.64 222.353 496.64 496.64-0.291 274.169-222.471 496.349-496.612 496.64zM512 186.88c-1.946 0-193.434 1.843-252.109 7.475-3.174 0.614-6.554 0.922-10.24 1.434-18.842 2.253-50.381 6.042-74.957 31.744-23.040 23.245-31.437 74.035-31.846 76.186-5.631 35.76-9.147 77.424-9.721 119.797l-0.007 56.74c0.459 42.489 3.904 83.774 10.139 124.139-0.616-2.59 9.624 46.357 32.152 70.114 17.776 18.203 42.564 29.492 69.988 29.492 0.127 0 0.253 0 0.38-0.001l6.739 0.512c102.4 7.475 257.843 2.662 259.379 2.662s157.184 4.813 259.686-2.56c2.56 0 5.427 0 8.704-0.512 1.1 0.048 2.391 0.075 3.688 0.075 25.584 0 48.697-10.577 65.205-27.597 23.062-22.961 31.459-73.649 31.459-75.799v0c5.946-35.824 9.647-77.497 10.233-119.922l0.007-56.718c-0.491-42.955-3.936-84.669-10.143-125.476 0.619 2.699-9.621-47.989-32.251-71.234-18.484-19.053-43.968-31.223-72.293-32.352l-4.916-0.007c-102.605-7.885-257.946-8.192-259.277-8.192zM400.282 698.88c-47.514 0-102.4-0.922-146.432-4.096l-7.066-0.614c-0.213 0.002-0.465 0.003-0.717 0.003-24.712 0-47.033-10.238-62.952-26.705-20.504-21.119-30.027-69.145-30.129-69.554-5.613-34.982-9.094-75.685-9.62-117.099l-0.006-56.674c0.5-42.385 3.907-83.53 10.034-123.782s7.682-44.666 28.366-65.76c22.118-23.142 50.176-26.522 68.813-28.672 3.994 0 7.578-0.922 10.24-1.434 57.754-5.53 248.832-7.27 250.675-7.373s156.467 0 258.56 7.68h4.608c26.028 0.835 49.321 11.889 66.125 29.26 20.506 21.121 30.029 70.273 30.131 70.785 5.623 35.422 9.139 76.69 9.721 118.667l0.007 56.744c-0.5 42.386-3.908 83.531-10.034 123.782 0.613-3.872-7.784 44.87-28.366 65.76-14.832 14.871-35.344 24.072-58.004 24.072-1.497 0-2.984-0.040-4.461-0.119-3.378 0.009-6.552 0.009-9.112 0.521-101.786 7.373-256.819 2.56-258.355 2.56s-50.893 2.048-112.23 2.048zM431.002 347.75v224.666l215.962-112.64zM440.32 555.52v-190.976l184.32 95.232z" />
<glyph unicode="&#xe636;" glyph-name="twitter-circle-outline" d="M512-58.88c-279.942 0-506.88 226.938-506.88 506.88s226.938 506.88 506.88 506.88c279.942 0 506.88-226.938 506.88-506.88-0.349-279.801-227.079-506.531-506.846-506.88zM512 944.64c-274.287 0-496.64-222.353-496.64-496.64s222.353-496.64 496.64-496.64c274.287 0 496.64 222.353 496.64 496.64-0.291 274.169-222.471 496.349-496.612 496.64zM384.717 164.147c-0.077 0-0.169 0-0.26 0-81.066 0-156.557 23.866-219.831 64.955l-17.17 11.025 22.118-2.56c9.891-1.232 21.346-1.939 32.964-1.946 0.21-0.001 0.448-0.001 0.687-0.001 60.016 0 115.551 19.187 160.806 51.761-58.338 6.13-105.199 45.443-122.786 98.148l-2.96 9.221 8.499-1.638c7.711-1.547 16.575-2.433 25.646-2.433 5.178 0 10.289 0.289 15.317 0.85-56.988 21.172-96.362 74.649-96.362 137.323 0 0.015 0 0.029 0 0.044v10.238l7.475-4.096c12.711-7.22 27.512-12.585 43.232-15.248-30.179 26.812-49.652 66.277-49.652 110.291 0 27 7.328 52.289 20.104 73.986l3.314 5.666 4.71-5.734c67.607-82.345 166.697-136.691 278.612-144.519-0.251 7.831-1.108 16.92-1.108 26.209 0 0.121 0 0.242 0 0.364 0.006 80.566 65.334 145.891 145.92 145.891 40.929 0 77.922-16.851 104.42-43.993 32.113 6.738 60.553 18.151 86.262 33.638l10.329 6.167-4.096-12.8c-8.922-27.315-24.832-50.299-45.638-67.597 21.735 4.232 41.13 10.563 59.458 18.839l14.442 6.466-10.24-14.746c-19.080-28.337-42.037-52.336-68.445-71.948q-0.777-8.334-0.777-16.219c0.614-199.373-151.142-405.606-404.992-405.606zM190.157 225.587c55.838-32.202 122.805-51.2 194.21-51.2 0.123 0 0.246 0 0.37 0 247.482 0 395.347 201.011 395.347 395.366q0 9.011 0 17.92v2.765l2.253 1.638c22.552 16.404 41.927 35.324 58.287 56.677-18.604-6.656-40.86-12.232-63.962-15.066l-25.249-3.006 20.48 12.288c24.198 14.639 43.095 35.909 54.439 61.294-22.512-11.472-49.016-21.12-76.99-26.688l-4.586-0.814-1.946 2.048c-24.787 26.041-59.711 42.237-98.418 42.237-74.991 0-135.782-60.792-135.782-135.782 0-10.691 1.236-21.093 3.572-31.072l1.355-5.737h-6.758c-116.114 6.225-218.473 60.339-288.491 142.778-9.827-17.359-15.308-38.596-15.308-61.113 0-46.803 23.68-88.075 59.712-112.489l15.325-10.545-17.92 0.512c-21.343 0.713-41.314 5.888-59.236 14.615 4.384-62.786 49.481-113.713 108.733-126.077l22.080-4.455-20.48-5.734c-11.485-3.256-24.675-5.128-38.303-5.128-6.678 0-13.25 0.449-19.689 1.32 20.745-50.265 68.485-85.287 124.53-86.302l14.563-0.002-11.366-8.909c-48.343-38.419-110.267-61.64-177.615-61.64-4.627 0-9.229 0.11-13.802 0.326z" />
</font>
</defs>
</svg>
